<svg width="370" height="342" viewBox="0 0 370 342" fill="none" xmlns="http://www.w3.org/2000/svg">
<path d="M43 108L123.611 30L124.852 263.5L43 340V108Z" fill="#273C75" stroke="#273C75"/>
<path d="M143.454 284.5V1L225.306 62V206.5L143.454 284.5Z" fill="#DDDEE2" stroke="#DDDEE2"/>
<path d="M245.148 280V47.5L327 107.5L326.38 340L245.148 280Z" fill="#273C75" stroke="#273C75"/>
<line y1="258.5" x2="370" y2="258.5" stroke="#7F8FA6" stroke-width="5"/>
<line y1="265.5" x2="370" y2="265.5" stroke="#7F8FA6" stroke-width="3"/>
<path d="M85.9639 290.087C85.9639 297.362 83.6934 301 79.1523 301H75.3438V279.584H79.2402C81.4473 279.584 83.1172 280.478 84.25 282.265C85.3926 284.042 85.9639 286.649 85.9639 290.087ZM84.4551 290.175C84.4551 287.157 84.0107 284.857 83.1221 283.275C82.2334 281.693 80.9199 280.902 79.1816 280.902H76.7793V299.682H79.0645C80.9199 299.682 82.2822 298.871 83.1514 297.25C84.0205 295.629 84.4551 293.271 84.4551 290.175ZM94.2256 301.293C92.5459 301.293 91.252 300.58 90.3438 299.154C89.4453 297.719 88.9961 295.722 88.9961 293.163C88.9961 290.448 89.3965 288.378 90.1973 286.952C91.0078 285.517 92.1699 284.799 93.6836 284.799C95.002 284.799 96.042 285.429 96.8037 286.688C97.5654 287.938 97.9463 289.628 97.9463 291.757V293.046H90.417C90.4365 295.36 90.7637 297.094 91.3984 298.246C92.0332 299.398 92.9951 299.975 94.2842 299.975C95.2803 299.975 96.3301 299.647 97.4336 298.993V300.341C96.418 300.976 95.3486 301.293 94.2256 301.293ZM93.5957 286.059C91.6816 286.059 90.6318 287.968 90.4463 291.786H96.5547C96.5547 290.038 96.2861 288.646 95.749 287.611C95.2217 286.576 94.5039 286.059 93.5957 286.059ZM107.731 297.016C107.731 298.354 107.38 299.403 106.677 300.165C105.974 300.917 104.958 301.293 103.63 301.293C102.907 301.293 102.272 301.2 101.726 301.015C101.179 300.829 100.754 300.624 100.451 300.399V298.773C100.812 299.135 101.291 299.428 101.887 299.652C102.482 299.867 103.093 299.975 103.718 299.975C104.538 299.975 105.183 299.706 105.651 299.169C106.12 298.632 106.354 297.914 106.354 297.016C106.354 296.312 106.184 295.722 105.842 295.243C105.51 294.755 104.87 294.203 103.923 293.588C102.839 292.904 102.097 292.357 101.696 291.947C101.306 291.537 100.998 291.078 100.773 290.57C100.559 290.062 100.451 289.457 100.451 288.754C100.451 287.611 100.837 286.669 101.608 285.927C102.38 285.175 103.361 284.799 104.553 284.799C105.832 284.799 106.901 285.102 107.761 285.707L107.043 286.923C106.242 286.386 105.393 286.117 104.494 286.117C103.674 286.117 103.02 286.361 102.531 286.85C102.043 287.328 101.799 287.963 101.799 288.754C101.799 289.457 101.965 290.048 102.297 290.526C102.629 290.995 103.332 291.566 104.406 292.24C105.461 292.934 106.184 293.49 106.574 293.91C106.965 294.32 107.253 294.779 107.438 295.287C107.634 295.785 107.731 296.361 107.731 297.016ZM112.346 301H110.954V285.106H112.346V301ZM110.749 280.697C110.749 280.258 110.837 279.916 111.013 279.672C111.198 279.428 111.433 279.306 111.716 279.306C111.979 279.306 112.189 279.428 112.346 279.672C112.502 279.916 112.58 280.258 112.58 280.697C112.58 281.117 112.502 281.454 112.346 281.708C112.189 281.952 111.979 282.074 111.716 282.074C111.433 282.074 111.198 281.952 111.013 281.708C110.837 281.454 110.749 281.117 110.749 280.697ZM124.929 285.106V286.088L122.761 286.337C123.054 286.718 123.293 287.265 123.479 287.978C123.664 288.681 123.757 289.403 123.757 290.146C123.757 291.688 123.405 292.938 122.702 293.896C122.009 294.853 121.091 295.331 119.948 295.331H119.597L119.289 295.302C118.82 295.634 118.449 295.966 118.176 296.298C117.912 296.63 117.78 297.016 117.78 297.455C117.78 297.904 117.956 298.256 118.308 298.51C118.659 298.754 119.133 298.876 119.729 298.876H120.725C122.141 298.876 123.239 299.242 124.021 299.975C124.802 300.707 125.192 301.767 125.192 303.153C125.192 304.706 124.665 305.937 123.61 306.845C122.565 307.753 121.184 308.207 119.465 308.207C118.029 308.207 116.926 307.841 116.154 307.108C115.383 306.386 114.997 305.341 114.997 303.974C114.997 302.978 115.251 302.123 115.759 301.41C116.267 300.707 117.062 300.15 118.146 299.74C117.658 299.525 117.263 299.228 116.96 298.847C116.667 298.466 116.521 298.012 116.521 297.484C116.521 297.006 116.677 296.581 116.989 296.21C117.312 295.829 117.766 295.424 118.352 294.994C117.541 294.623 116.926 294.022 116.506 293.192C116.096 292.362 115.891 291.386 115.891 290.263C115.891 288.573 116.247 287.24 116.96 286.264C117.673 285.287 118.649 284.799 119.89 284.799C120.554 284.799 121.11 284.901 121.56 285.106H124.929ZM116.374 303.856C116.374 304.862 116.633 305.648 117.15 306.215C117.678 306.781 118.469 307.064 119.523 307.064C120.832 307.064 121.867 306.723 122.629 306.039C123.4 305.355 123.786 304.418 123.786 303.227C123.786 302.27 123.522 301.527 122.995 301C122.478 300.482 121.721 300.224 120.725 300.224H119.699C118.742 300.224 117.946 300.556 117.312 301.22C116.687 301.894 116.374 302.772 116.374 303.856ZM117.238 290.292C117.238 291.591 117.478 292.577 117.956 293.251C118.435 293.915 119.069 294.247 119.86 294.247C121.56 294.247 122.409 292.88 122.409 290.146C122.409 288.827 122.189 287.797 121.75 287.055C121.32 286.312 120.69 285.941 119.86 285.941C119.011 285.941 118.361 286.322 117.912 287.084C117.463 287.846 117.238 288.915 117.238 290.292ZM134.655 301V290.043C134.655 287.406 133.874 286.088 132.312 286.088C131.12 286.088 130.246 286.581 129.689 287.567C129.143 288.554 128.869 290.121 128.869 292.27V301H127.478V285.106H128.649L128.767 287.318H128.898C129.23 286.518 129.709 285.897 130.334 285.458C130.959 285.019 131.628 284.799 132.341 284.799C133.571 284.799 134.494 285.214 135.109 286.044C135.725 286.864 136.032 288.188 136.032 290.014V301H134.655ZM149.157 291.01H144.616V289.809H149.157V283.451H150.358V289.809H154.885V291.01H150.358V297.338H149.157V291.01ZM163.762 279.584H167.863C169.543 279.584 170.832 280.014 171.73 280.873C172.639 281.732 173.093 283.002 173.093 284.682C173.093 287.582 172.033 289.242 169.914 289.662V289.779C171.135 290.033 172.043 290.58 172.639 291.42C173.234 292.25 173.532 293.412 173.532 294.906C173.532 296.82 173.107 298.314 172.258 299.389C171.408 300.463 170.217 301 168.684 301H163.762V279.584ZM165.197 289.12H167.893C169.23 289.12 170.183 288.754 170.749 288.021C171.325 287.279 171.613 286.156 171.613 284.652C171.613 283.441 171.296 282.514 170.661 281.869C170.036 281.225 169.104 280.902 167.863 280.902H165.197V289.12ZM165.197 290.438V299.682H168.493C170.856 299.682 172.038 298.08 172.038 294.877C172.038 293.451 171.691 292.357 170.998 291.596C170.305 290.824 169.333 290.438 168.083 290.438H165.197ZM178.176 285.106V295.478C178.176 297.05 178.361 298.197 178.732 298.92C179.113 299.643 179.694 300.004 180.476 300.004C181.677 300.004 182.556 299.521 183.112 298.554C183.679 297.577 183.962 296.005 183.962 293.837V285.106H185.339V301H184.167L183.991 298.773H183.874C183.532 299.584 183.059 300.209 182.453 300.648C181.848 301.078 181.188 301.293 180.476 301.293C179.196 301.293 178.259 300.839 177.663 299.931C177.077 299.022 176.784 297.538 176.784 295.478V285.106H178.176ZM190.979 301H189.587V285.106H190.979V301ZM189.382 280.697C189.382 280.258 189.47 279.916 189.646 279.672C189.831 279.428 190.065 279.306 190.349 279.306C190.612 279.306 190.822 279.428 190.979 279.672C191.135 279.916 191.213 280.258 191.213 280.697C191.213 281.117 191.135 281.454 190.979 281.708C190.822 281.952 190.612 282.074 190.349 282.074C190.065 282.074 189.831 281.952 189.646 281.708C189.47 281.454 189.382 281.117 189.382 280.697ZM196.633 301H195.241V278.207H196.633V301ZM204.777 301.293C201.691 301.293 200.148 298.554 200.148 293.075C200.148 290.38 200.534 288.329 201.306 286.923C202.077 285.507 203.215 284.799 204.719 284.799C205.432 284.799 206.105 285.004 206.74 285.414C207.385 285.824 207.897 286.391 208.278 287.113H208.396L208.337 285.341V278.207H209.729V301H208.586L208.469 298.773H208.337C207.956 299.584 207.463 300.209 206.857 300.648C206.252 301.078 205.559 301.293 204.777 301.293ZM204.865 300.077C205.979 300.077 206.833 299.564 207.429 298.539C208.034 297.504 208.337 295.985 208.337 293.983V293.075C208.337 290.673 208.044 288.915 207.458 287.802C206.882 286.679 205.998 286.117 204.807 286.117C203.664 286.117 202.844 286.718 202.346 287.919C201.848 289.11 201.599 290.839 201.599 293.104C201.599 295.39 201.857 297.123 202.375 298.305C202.893 299.486 203.723 300.077 204.865 300.077ZM222.927 291.01H218.386V289.809H222.927V283.451H224.128V289.809H228.654V291.01H224.128V297.338H222.927V291.01ZM238.967 301H237.531V279.584H245.324V280.961H238.967V290.043H244.973V291.435H238.967V301ZM256.955 293.017C256.955 295.692 256.53 297.743 255.681 299.169C254.841 300.585 253.635 301.293 252.062 301.293C250.51 301.293 249.318 300.585 248.488 299.169C247.668 297.743 247.258 295.692 247.258 293.017C247.258 287.538 248.879 284.799 252.121 284.799C253.645 284.799 254.831 285.517 255.681 286.952C256.53 288.388 256.955 290.409 256.955 293.017ZM248.708 293.017C248.708 295.312 248.981 297.045 249.528 298.217C250.075 299.389 250.93 299.975 252.092 299.975C254.367 299.975 255.505 297.655 255.505 293.017C255.505 288.417 254.367 286.117 252.092 286.117C250.9 286.117 250.036 286.693 249.499 287.846C248.972 288.998 248.708 290.722 248.708 293.017ZM264.865 284.799C265.363 284.799 265.827 284.867 266.257 285.004L265.92 286.396C265.568 286.249 265.207 286.176 264.836 286.176C264.299 286.176 263.796 286.454 263.327 287.011C262.868 287.558 262.507 288.324 262.243 289.311C261.979 290.297 261.848 291.386 261.848 292.577V301H260.456V285.106H261.599L261.745 287.89H261.848C262.59 285.829 263.596 284.799 264.865 284.799ZM271.574 300.004C272.004 300.004 272.385 299.945 272.717 299.828V301C272.287 301.195 271.735 301.293 271.062 301.293C269.421 301.293 268.601 300.067 268.601 297.616V286.337H267.165V285.517L268.571 285.106L269.025 281.327H269.992V285.106H272.512V286.337H269.992V297.221C269.992 298.295 270.109 299.027 270.344 299.418C270.578 299.809 270.988 300.004 271.574 300.004ZM276.643 301H275.251V285.106H276.643V301ZM275.046 280.697C275.046 280.258 275.134 279.916 275.31 279.672C275.495 279.428 275.729 279.306 276.013 279.306C276.276 279.306 276.486 279.428 276.643 279.672C276.799 279.916 276.877 280.258 276.877 280.697C276.877 281.117 276.799 281.454 276.643 281.708C276.486 281.952 276.276 282.074 276.013 282.074C275.729 282.074 275.495 281.952 275.31 281.708C275.134 281.454 275.046 281.117 275.046 280.697ZM284.963 286.337H282.473V301H281.096V286.337H279.074V285.546L281.096 284.945V283.744C281.096 281.723 281.335 280.268 281.813 279.379C282.292 278.49 283.122 278.046 284.304 278.046C284.987 278.046 285.607 278.168 286.164 278.412L285.681 279.701C285.163 279.457 284.694 279.335 284.274 279.335C283.796 279.335 283.435 279.477 283.19 279.76C282.946 280.043 282.766 280.502 282.648 281.137C282.531 281.771 282.473 282.65 282.473 283.773V285.106H284.963V286.337ZM289.548 300.971L285.578 285.106H286.984L289.387 295.023C289.67 296.215 289.943 297.558 290.207 299.052H290.324C290.51 297.753 290.769 296.4 291.101 294.994L293.444 285.106H294.851L290.207 304.003C289.865 305.399 289.416 306.449 288.859 307.152C288.312 307.855 287.58 308.207 286.662 308.207C286.291 308.207 285.871 308.124 285.402 307.958V306.698C285.793 306.835 286.174 306.903 286.545 306.903C287.131 306.903 287.595 306.649 287.937 306.142C288.278 305.644 288.581 304.838 288.845 303.725L289.548 300.971Z" fill="#7F8FA6"/>
<path d="M78.2886 229L72.8086 206.485H57.728L52.333 229H48L62.9531 166.894H67.2437L82.5366 229H78.2886ZM71.8315 202.28L66.3516 179.128C65.7852 176.522 65.3462 174.059 65.0347 171.736C64.7798 174.2 64.3833 176.664 63.8452 179.128L58.5352 202.28H71.8315ZM101.525 182.017C102.97 182.017 104.315 182.215 105.561 182.611L104.584 186.647C103.564 186.222 102.517 186.01 101.44 186.01C99.8828 186.01 98.4243 186.817 97.0649 188.431C95.7339 190.017 94.686 192.24 93.9214 195.101C93.1567 197.961 92.7744 201.119 92.7744 204.574V229H88.7388V182.909H92.0522L92.4771 190.98H92.7744C94.9268 185.004 97.8438 182.017 101.525 182.017ZM124.38 229.85C119.764 229.85 116.28 227.853 113.93 223.86C111.607 219.838 110.446 213.948 110.446 206.188C110.446 198.315 111.622 192.325 113.972 188.219C116.351 184.084 119.849 182.017 124.465 182.017C127.325 182.017 129.704 182.541 131.602 183.588L130.03 187.157C128.132 186.279 126.391 185.84 124.805 185.84C118.036 185.84 114.652 192.594 114.652 206.103C114.652 219.499 118.036 226.196 124.805 226.196C126.815 226.196 128.996 225.743 131.347 224.837V228.235C130.412 228.745 129.265 229.142 127.906 229.425C126.546 229.708 125.371 229.85 124.38 229.85ZM160.361 229V197.225C160.361 193.062 159.809 190.116 158.704 188.389C157.628 186.633 155.858 185.755 153.394 185.755C150.137 185.755 147.688 187.199 146.045 190.088C144.402 192.977 143.581 197.536 143.581 203.767V229H139.545V162.9H143.581V184.353C143.581 186.307 143.524 187.936 143.411 189.238H143.751C144.657 186.944 146.017 185.174 147.829 183.928C149.67 182.654 151.582 182.017 153.564 182.017C157.472 182.017 160.248 183.291 161.89 185.84C163.533 188.389 164.354 192.184 164.354 197.225V229H160.361ZM180.539 229H176.503V182.909H180.539V229ZM175.909 170.122C175.909 168.848 176.164 167.856 176.673 167.148C177.211 166.44 177.891 166.086 178.712 166.086C179.477 166.086 180.086 166.44 180.539 167.148C180.992 167.856 181.219 168.848 181.219 170.122C181.219 171.34 180.992 172.317 180.539 173.053C180.086 173.761 179.477 174.115 178.712 174.115C177.891 174.115 177.211 173.761 176.673 173.053C176.164 172.317 175.909 171.34 175.909 170.122ZM201.354 226.111C202.601 226.111 203.705 225.941 204.668 225.602V229C203.422 229.566 201.822 229.85 199.868 229.85C195.11 229.85 192.731 226.295 192.731 219.187V186.477H188.568V184.098L192.646 182.909L193.963 171.949H196.767V182.909H204.073V186.477H196.767V218.04C196.767 221.155 197.106 223.279 197.786 224.412C198.466 225.545 199.655 226.111 201.354 226.111ZM225.101 229.85C220.23 229.85 216.478 227.782 213.844 223.647C211.238 219.484 209.936 213.693 209.936 206.273C209.936 198.4 211.097 192.396 213.419 188.261C215.77 184.098 219.14 182.017 223.529 182.017C227.353 182.017 230.369 183.843 232.578 187.497C234.787 191.122 235.891 196.021 235.891 202.195V205.933H214.056C214.113 212.645 215.062 217.672 216.902 221.014C218.743 224.355 221.533 226.026 225.271 226.026C228.16 226.026 231.204 225.078 234.404 223.18V227.088C231.459 228.929 228.358 229.85 225.101 229.85ZM223.274 185.67C217.724 185.67 214.679 191.207 214.141 202.28H231.855C231.855 197.21 231.077 193.175 229.519 190.173C227.99 187.171 225.908 185.67 223.274 185.67ZM258.023 229.85C253.407 229.85 249.924 227.853 247.573 223.86C245.251 219.838 244.09 213.948 244.09 206.188C244.09 198.315 245.265 192.325 247.616 188.219C249.995 184.084 253.492 182.017 258.108 182.017C260.969 182.017 263.348 182.541 265.245 183.588L263.673 187.157C261.776 186.279 260.034 185.84 258.448 185.84C251.68 185.84 248.295 192.594 248.295 206.103C248.295 219.499 251.68 226.196 258.448 226.196C260.459 226.196 262.64 225.743 264.99 224.837V228.235C264.056 228.745 262.909 229.142 261.549 229.425C260.19 229.708 259.015 229.85 258.023 229.85ZM281.643 226.111C282.889 226.111 283.993 225.941 284.956 225.602V229C283.71 229.566 282.11 229.85 280.156 229.85C275.398 229.85 273.019 226.295 273.019 219.187V186.477H268.856V184.098L272.934 182.909L274.251 171.949H277.055V182.909H284.361V186.477H277.055V218.04C277.055 221.155 277.395 223.279 278.074 224.412C278.754 225.545 279.943 226.111 281.643 226.111ZM310.402 217.445C310.402 221.325 309.382 224.37 307.343 226.579C305.304 228.759 302.359 229.85 298.507 229.85C296.412 229.85 294.571 229.581 292.985 229.042C291.399 228.504 290.167 227.91 289.289 227.258V222.543C290.337 223.591 291.725 224.44 293.452 225.092C295.18 225.715 296.95 226.026 298.762 226.026C301.141 226.026 303.01 225.248 304.37 223.69C305.729 222.132 306.409 220.051 306.409 217.445C306.409 215.406 305.913 213.693 304.922 212.305C303.959 210.889 302.104 209.289 299.357 207.505C296.213 205.522 294.061 203.937 292.9 202.747C291.767 201.558 290.875 200.227 290.224 198.754C289.601 197.281 289.289 195.525 289.289 193.486C289.289 190.173 290.408 187.44 292.645 185.288C294.882 183.107 297.729 182.017 301.184 182.017C304.894 182.017 307.995 182.895 310.487 184.65L308.405 188.176C306.083 186.619 303.619 185.84 301.014 185.84C298.635 185.84 296.737 186.548 295.321 187.964C293.905 189.352 293.197 191.192 293.197 193.486C293.197 195.525 293.679 197.239 294.642 198.626C295.604 199.986 297.644 201.643 300.759 203.597C303.817 205.607 305.913 207.222 307.046 208.439C308.179 209.629 309.014 210.96 309.552 212.433C310.119 213.877 310.402 215.548 310.402 217.445Z" fill="#7F8FA6"/>
<path d="M76.9287 148H74.2969V108.737H88.584V111.262H76.9287V127.912H87.9395V130.463H76.9287V148ZM104.778 148L104.456 143.918H104.348C102.952 146.997 100.839 148.537 98.0103 148.537C96.1125 148.537 94.5817 147.785 93.418 146.281C92.2721 144.759 91.6992 142.727 91.6992 140.185C91.6992 137.41 92.5317 135.217 94.1968 133.605C95.8618 131.976 98.1982 131.09 101.206 130.947L104.348 130.786V128.369C104.348 125.647 104.008 123.669 103.328 122.434C102.647 121.18 101.519 120.554 99.9438 120.554C98.2788 120.554 96.578 121.1 94.8413 122.192L93.7402 120.178C95.7633 118.924 97.8849 118.298 100.105 118.298C102.504 118.298 104.232 119.059 105.288 120.581C106.344 122.084 106.873 124.609 106.873 128.154V148H104.778ZM98.5742 146.362C100.4 146.362 101.815 145.467 102.817 143.676C103.838 141.868 104.348 139.317 104.348 136.022V132.988L101.313 133.149C98.9681 133.274 97.2225 133.928 96.0767 135.109C94.9487 136.273 94.3848 137.983 94.3848 140.239C94.3848 142.351 94.7607 143.9 95.5127 144.885C96.2646 145.869 97.2852 146.362 98.5742 146.362ZM139.314 148V128.154C139.314 123.266 137.882 120.822 135.017 120.822C133.048 120.822 131.624 121.682 130.747 123.4C129.888 125.101 129.458 127.617 129.458 130.947V148H126.934V128.154C126.934 125.683 126.584 123.848 125.886 122.648C125.188 121.431 124.105 120.822 122.637 120.822C120.703 120.822 119.298 121.7 118.42 123.454C117.543 125.209 117.104 128.055 117.104 131.994V148H114.553V118.862H116.702L116.917 122.917H117.158C118.322 119.838 120.3 118.298 123.093 118.298C124.705 118.298 125.976 118.728 126.907 119.587C127.838 120.446 128.509 121.7 128.921 123.347C129.619 121.556 130.479 120.267 131.499 119.479C132.52 118.692 133.844 118.298 135.474 118.298C137.676 118.298 139.287 119.148 140.308 120.849C141.328 122.532 141.838 125.236 141.838 128.959V148H139.314ZM152.124 148H149.573V118.862H152.124V148ZM149.197 110.778C149.197 109.973 149.358 109.346 149.68 108.898C150.02 108.451 150.45 108.227 150.969 108.227C151.453 108.227 151.838 108.451 152.124 108.898C152.41 109.346 152.554 109.973 152.554 110.778C152.554 111.548 152.41 112.166 152.124 112.631C151.838 113.079 151.453 113.303 150.969 113.303C150.45 113.303 150.02 113.079 149.68 112.631C149.358 112.166 149.197 111.548 149.197 110.778ZM162.49 148H159.939V106.213H162.49V148ZM173.958 147.946L166.68 118.862H169.258L173.662 137.043C174.181 139.227 174.683 141.689 175.166 144.428H175.381C175.721 142.047 176.195 139.567 176.804 136.989L181.101 118.862H183.679L175.166 153.505C174.539 156.066 173.716 157.99 172.695 159.279C171.693 160.568 170.35 161.213 168.667 161.213C167.987 161.213 167.217 161.061 166.357 160.756V158.447C167.074 158.697 167.772 158.823 168.452 158.823C169.526 158.823 170.377 158.357 171.003 157.426C171.63 156.513 172.185 155.036 172.668 152.995L173.958 147.946ZM219.961 128.315C219.961 134.814 218.985 139.809 217.034 143.3C215.1 146.792 212.298 148.537 208.628 148.537C204.922 148.537 202.111 146.783 200.195 143.273C198.28 139.746 197.322 134.742 197.322 128.261C197.322 121.494 198.271 116.454 200.168 113.142C202.066 109.829 204.913 108.173 208.708 108.173C212.361 108.173 215.145 109.919 217.061 113.41C218.994 116.883 219.961 121.852 219.961 128.315ZM200.061 128.315C200.061 134.152 200.786 138.565 202.236 141.555C203.704 144.527 205.835 146.013 208.628 146.013C211.439 146.013 213.569 144.536 215.02 141.582C216.488 138.627 217.222 134.205 217.222 128.315C217.222 122.496 216.506 118.11 215.073 115.156C213.641 112.184 211.519 110.698 208.708 110.698C205.826 110.698 203.66 112.202 202.209 115.209C200.777 118.199 200.061 122.568 200.061 128.315ZM234.302 121.118H229.736V148H227.212V121.118H223.506V119.667L227.212 118.566V116.364C227.212 112.658 227.651 109.991 228.528 108.361C229.405 106.732 230.927 105.917 233.093 105.917C234.347 105.917 235.483 106.141 236.504 106.589L235.618 108.952C234.669 108.505 233.809 108.281 233.04 108.281C232.162 108.281 231.5 108.54 231.052 109.06C230.605 109.579 230.273 110.42 230.059 111.584C229.844 112.748 229.736 114.359 229.736 116.418V118.862H234.302V121.118ZM246.897 121.118H242.332V148H239.807V121.118H236.101V119.667L239.807 118.566V116.364C239.807 112.658 240.246 109.991 241.123 108.361C242 106.732 243.522 105.917 245.688 105.917C246.942 105.917 248.079 106.141 249.099 106.589L248.213 108.952C247.264 108.505 246.405 108.281 245.635 108.281C244.757 108.281 244.095 108.54 243.647 109.06C243.2 109.579 242.869 110.42 242.654 111.584C242.439 112.748 242.332 114.359 242.332 116.418V118.862H246.897V121.118ZM254.067 148H251.516V118.862H254.067V148ZM251.14 110.778C251.14 109.973 251.301 109.346 251.624 108.898C251.964 108.451 252.393 108.227 252.913 108.227C253.396 108.227 253.781 108.451 254.067 108.898C254.354 109.346 254.497 109.973 254.497 110.778C254.497 111.548 254.354 112.166 254.067 112.631C253.781 113.079 253.396 113.303 252.913 113.303C252.393 113.303 251.964 113.079 251.624 112.631C251.301 112.166 251.14 111.548 251.14 110.778ZM269.375 148.537C266.457 148.537 264.255 147.275 262.769 144.75C261.3 142.208 260.566 138.484 260.566 133.579C260.566 128.601 261.309 124.815 262.795 122.219C264.299 119.605 266.51 118.298 269.429 118.298C271.237 118.298 272.741 118.629 273.94 119.292L272.947 121.547C271.747 120.992 270.646 120.715 269.644 120.715C265.365 120.715 263.225 124.985 263.225 133.525C263.225 141.993 265.365 146.228 269.644 146.228C270.915 146.228 272.293 145.941 273.779 145.368V147.517C273.188 147.839 272.463 148.09 271.604 148.269C270.745 148.448 270.002 148.537 269.375 148.537ZM287.234 148.537C284.154 148.537 281.782 147.23 280.117 144.616C278.47 141.984 277.646 138.323 277.646 133.632C277.646 128.655 278.381 124.86 279.849 122.246C281.335 119.614 283.465 118.298 286.24 118.298C288.657 118.298 290.564 119.453 291.96 121.762C293.357 124.054 294.055 127.151 294.055 131.054V133.417H280.251C280.287 137.661 280.887 140.839 282.051 142.951C283.215 145.064 284.978 146.12 287.341 146.12C289.167 146.12 291.092 145.52 293.115 144.321V146.792C291.253 147.955 289.293 148.537 287.234 148.537ZM286.079 120.607C282.57 120.607 280.645 124.108 280.305 131.108H291.504C291.504 127.903 291.012 125.352 290.027 123.454C289.06 121.556 287.744 120.607 286.079 120.607Z" fill="#7F8FA6"/>
<path d="M43 108L123.611 30L124.852 263.5L43 340V108Z" fill="#DDDEE2" stroke="#DDDEE2"/>
<path d="M143.454 284.5V1L225.306 62V206.5L143.454 284.5Z" fill="#DDDEE2"/>
<path d="M245.148 280V47.5L327 107.5L326.38 340L245.148 280Z" fill="#DDDEE2" stroke="#DDDEE2"/>
<line y1="258.5" x2="370" y2="258.5" stroke="#7F8FA6" stroke-width="5"/>
<line y1="265.5" x2="370" y2="265.5" stroke="#7F8FA6" stroke-width="3"/>
<path d="M85.9639 290.087C85.9639 297.362 83.6934 301 79.1523 301H75.3438V279.584H79.2402C81.4473 279.584 83.1172 280.478 84.25 282.265C85.3926 284.042 85.9639 286.649 85.9639 290.087ZM84.4551 290.175C84.4551 287.157 84.0107 284.857 83.1221 283.275C82.2334 281.693 80.9199 280.902 79.1816 280.902H76.7793V299.682H79.0645C80.9199 299.682 82.2822 298.871 83.1514 297.25C84.0205 295.629 84.4551 293.271 84.4551 290.175ZM94.2256 301.293C92.5459 301.293 91.252 300.58 90.3438 299.154C89.4453 297.719 88.9961 295.722 88.9961 293.163C88.9961 290.448 89.3965 288.378 90.1973 286.952C91.0078 285.517 92.1699 284.799 93.6836 284.799C95.002 284.799 96.042 285.429 96.8037 286.688C97.5654 287.938 97.9463 289.628 97.9463 291.757V293.046H90.417C90.4365 295.36 90.7637 297.094 91.3984 298.246C92.0332 299.398 92.9951 299.975 94.2842 299.975C95.2803 299.975 96.3301 299.647 97.4336 298.993V300.341C96.418 300.976 95.3486 301.293 94.2256 301.293ZM93.5957 286.059C91.6816 286.059 90.6318 287.968 90.4463 291.786H96.5547C96.5547 290.038 96.2861 288.646 95.749 287.611C95.2217 286.576 94.5039 286.059 93.5957 286.059ZM107.731 297.016C107.731 298.354 107.38 299.403 106.677 300.165C105.974 300.917 104.958 301.293 103.63 301.293C102.907 301.293 102.272 301.2 101.726 301.015C101.179 300.829 100.754 300.624 100.451 300.399V298.773C100.812 299.135 101.291 299.428 101.887 299.652C102.482 299.867 103.093 299.975 103.718 299.975C104.538 299.975 105.183 299.706 105.651 299.169C106.12 298.632 106.354 297.914 106.354 297.016C106.354 296.312 106.184 295.722 105.842 295.243C105.51 294.755 104.87 294.203 103.923 293.588C102.839 292.904 102.097 292.357 101.696 291.947C101.306 291.537 100.998 291.078 100.773 290.57C100.559 290.062 100.451 289.457 100.451 288.754C100.451 287.611 100.837 286.669 101.608 285.927C102.38 285.175 103.361 284.799 104.553 284.799C105.832 284.799 106.901 285.102 107.761 285.707L107.043 286.923C106.242 286.386 105.393 286.117 104.494 286.117C103.674 286.117 103.02 286.361 102.531 286.85C102.043 287.328 101.799 287.963 101.799 288.754C101.799 289.457 101.965 290.048 102.297 290.526C102.629 290.995 103.332 291.566 104.406 292.24C105.461 292.934 106.184 293.49 106.574 293.91C106.965 294.32 107.253 294.779 107.438 295.287C107.634 295.785 107.731 296.361 107.731 297.016ZM112.346 301H110.954V285.106H112.346V301ZM110.749 280.697C110.749 280.258 110.837 279.916 111.013 279.672C111.198 279.428 111.433 279.306 111.716 279.306C111.979 279.306 112.189 279.428 112.346 279.672C112.502 279.916 112.58 280.258 112.58 280.697C112.58 281.117 112.502 281.454 112.346 281.708C112.189 281.952 111.979 282.074 111.716 282.074C111.433 282.074 111.198 281.952 111.013 281.708C110.837 281.454 110.749 281.117 110.749 280.697ZM124.929 285.106V286.088L122.761 286.337C123.054 286.718 123.293 287.265 123.479 287.978C123.664 288.681 123.757 289.403 123.757 290.146C123.757 291.688 123.405 292.938 122.702 293.896C122.009 294.853 121.091 295.331 119.948 295.331H119.597L119.289 295.302C118.82 295.634 118.449 295.966 118.176 296.298C117.912 296.63 117.78 297.016 117.78 297.455C117.78 297.904 117.956 298.256 118.308 298.51C118.659 298.754 119.133 298.876 119.729 298.876H120.725C122.141 298.876 123.239 299.242 124.021 299.975C124.802 300.707 125.192 301.767 125.192 303.153C125.192 304.706 124.665 305.937 123.61 306.845C122.565 307.753 121.184 308.207 119.465 308.207C118.029 308.207 116.926 307.841 116.154 307.108C115.383 306.386 114.997 305.341 114.997 303.974C114.997 302.978 115.251 302.123 115.759 301.41C116.267 300.707 117.062 300.15 118.146 299.74C117.658 299.525 117.263 299.228 116.96 298.847C116.667 298.466 116.521 298.012 116.521 297.484C116.521 297.006 116.677 296.581 116.989 296.21C117.312 295.829 117.766 295.424 118.352 294.994C117.541 294.623 116.926 294.022 116.506 293.192C116.096 292.362 115.891 291.386 115.891 290.263C115.891 288.573 116.247 287.24 116.96 286.264C117.673 285.287 118.649 284.799 119.89 284.799C120.554 284.799 121.11 284.901 121.56 285.106H124.929ZM116.374 303.856C116.374 304.862 116.633 305.648 117.15 306.215C117.678 306.781 118.469 307.064 119.523 307.064C120.832 307.064 121.867 306.723 122.629 306.039C123.4 305.355 123.786 304.418 123.786 303.227C123.786 302.27 123.522 301.527 122.995 301C122.478 300.482 121.721 300.224 120.725 300.224H119.699C118.742 300.224 117.946 300.556 117.312 301.22C116.687 301.894 116.374 302.772 116.374 303.856ZM117.238 290.292C117.238 291.591 117.478 292.577 117.956 293.251C118.435 293.915 119.069 294.247 119.86 294.247C121.56 294.247 122.409 292.88 122.409 290.146C122.409 288.827 122.189 287.797 121.75 287.055C121.32 286.312 120.69 285.941 119.86 285.941C119.011 285.941 118.361 286.322 117.912 287.084C117.463 287.846 117.238 288.915 117.238 290.292ZM134.655 301V290.043C134.655 287.406 133.874 286.088 132.312 286.088C131.12 286.088 130.246 286.581 129.689 287.567C129.143 288.554 128.869 290.121 128.869 292.27V301H127.478V285.106H128.649L128.767 287.318H128.898C129.23 286.518 129.709 285.897 130.334 285.458C130.959 285.019 131.628 284.799 132.341 284.799C133.571 284.799 134.494 285.214 135.109 286.044C135.725 286.864 136.032 288.188 136.032 290.014V301H134.655ZM149.157 291.01H144.616V289.809H149.157V283.451H150.358V289.809H154.885V291.01H150.358V297.338H149.157V291.01ZM163.762 279.584H167.863C169.543 279.584 170.832 280.014 171.73 280.873C172.639 281.732 173.093 283.002 173.093 284.682C173.093 287.582 172.033 289.242 169.914 289.662V289.779C171.135 290.033 172.043 290.58 172.639 291.42C173.234 292.25 173.532 293.412 173.532 294.906C173.532 296.82 173.107 298.314 172.258 299.389C171.408 300.463 170.217 301 168.684 301H163.762V279.584ZM165.197 289.12H167.893C169.23 289.12 170.183 288.754 170.749 288.021C171.325 287.279 171.613 286.156 171.613 284.652C171.613 283.441 171.296 282.514 170.661 281.869C170.036 281.225 169.104 280.902 167.863 280.902H165.197V289.12ZM165.197 290.438V299.682H168.493C170.856 299.682 172.038 298.08 172.038 294.877C172.038 293.451 171.691 292.357 170.998 291.596C170.305 290.824 169.333 290.438 168.083 290.438H165.197ZM178.176 285.106V295.478C178.176 297.05 178.361 298.197 178.732 298.92C179.113 299.643 179.694 300.004 180.476 300.004C181.677 300.004 182.556 299.521 183.112 298.554C183.679 297.577 183.962 296.005 183.962 293.837V285.106H185.339V301H184.167L183.991 298.773H183.874C183.532 299.584 183.059 300.209 182.453 300.648C181.848 301.078 181.188 301.293 180.476 301.293C179.196 301.293 178.259 300.839 177.663 299.931C177.077 299.022 176.784 297.538 176.784 295.478V285.106H178.176ZM190.979 301H189.587V285.106H190.979V301ZM189.382 280.697C189.382 280.258 189.47 279.916 189.646 279.672C189.831 279.428 190.065 279.306 190.349 279.306C190.612 279.306 190.822 279.428 190.979 279.672C191.135 279.916 191.213 280.258 191.213 280.697C191.213 281.117 191.135 281.454 190.979 281.708C190.822 281.952 190.612 282.074 190.349 282.074C190.065 282.074 189.831 281.952 189.646 281.708C189.47 281.454 189.382 281.117 189.382 280.697ZM196.633 301H195.241V278.207H196.633V301ZM204.777 301.293C201.691 301.293 200.148 298.554 200.148 293.075C200.148 290.38 200.534 288.329 201.306 286.923C202.077 285.507 203.215 284.799 204.719 284.799C205.432 284.799 206.105 285.004 206.74 285.414C207.385 285.824 207.897 286.391 208.278 287.113H208.396L208.337 285.341V278.207H209.729V301H208.586L208.469 298.773H208.337C207.956 299.584 207.463 300.209 206.857 300.648C206.252 301.078 205.559 301.293 204.777 301.293ZM204.865 300.077C205.979 300.077 206.833 299.564 207.429 298.539C208.034 297.504 208.337 295.985 208.337 293.983V293.075C208.337 290.673 208.044 288.915 207.458 287.802C206.882 286.679 205.998 286.117 204.807 286.117C203.664 286.117 202.844 286.718 202.346 287.919C201.848 289.11 201.599 290.839 201.599 293.104C201.599 295.39 201.857 297.123 202.375 298.305C202.893 299.486 203.723 300.077 204.865 300.077ZM222.927 291.01H218.386V289.809H222.927V283.451H224.128V289.809H228.654V291.01H224.128V297.338H222.927V291.01ZM238.967 301H237.531V279.584H245.324V280.961H238.967V290.043H244.973V291.435H238.967V301ZM256.955 293.017C256.955 295.692 256.53 297.743 255.681 299.169C254.841 300.585 253.635 301.293 252.062 301.293C250.51 301.293 249.318 300.585 248.488 299.169C247.668 297.743 247.258 295.692 247.258 293.017C247.258 287.538 248.879 284.799 252.121 284.799C253.645 284.799 254.831 285.517 255.681 286.952C256.53 288.388 256.955 290.409 256.955 293.017ZM248.708 293.017C248.708 295.312 248.981 297.045 249.528 298.217C250.075 299.389 250.93 299.975 252.092 299.975C254.367 299.975 255.505 297.655 255.505 293.017C255.505 288.417 254.367 286.117 252.092 286.117C250.9 286.117 250.036 286.693 249.499 287.846C248.972 288.998 248.708 290.722 248.708 293.017ZM264.865 284.799C265.363 284.799 265.827 284.867 266.257 285.004L265.92 286.396C265.568 286.249 265.207 286.176 264.836 286.176C264.299 286.176 263.796 286.454 263.327 287.011C262.868 287.558 262.507 288.324 262.243 289.311C261.979 290.297 261.848 291.386 261.848 292.577V301H260.456V285.106H261.599L261.745 287.89H261.848C262.59 285.829 263.596 284.799 264.865 284.799ZM271.574 300.004C272.004 300.004 272.385 299.945 272.717 299.828V301C272.287 301.195 271.735 301.293 271.062 301.293C269.421 301.293 268.601 300.067 268.601 297.616V286.337H267.165V285.517L268.571 285.106L269.025 281.327H269.992V285.106H272.512V286.337H269.992V297.221C269.992 298.295 270.109 299.027 270.344 299.418C270.578 299.809 270.988 300.004 271.574 300.004ZM276.643 301H275.251V285.106H276.643V301ZM275.046 280.697C275.046 280.258 275.134 279.916 275.31 279.672C275.495 279.428 275.729 279.306 276.013 279.306C276.276 279.306 276.486 279.428 276.643 279.672C276.799 279.916 276.877 280.258 276.877 280.697C276.877 281.117 276.799 281.454 276.643 281.708C276.486 281.952 276.276 282.074 276.013 282.074C275.729 282.074 275.495 281.952 275.31 281.708C275.134 281.454 275.046 281.117 275.046 280.697ZM284.963 286.337H282.473V301H281.096V286.337H279.074V285.546L281.096 284.945V283.744C281.096 281.723 281.335 280.268 281.813 279.379C282.292 278.49 283.122 278.046 284.304 278.046C284.987 278.046 285.607 278.168 286.164 278.412L285.681 279.701C285.163 279.457 284.694 279.335 284.274 279.335C283.796 279.335 283.435 279.477 283.19 279.76C282.946 280.043 282.766 280.502 282.648 281.137C282.531 281.771 282.473 282.65 282.473 283.773V285.106H284.963V286.337ZM289.548 300.971L285.578 285.106H286.984L289.387 295.023C289.67 296.215 289.943 297.558 290.207 299.052H290.324C290.51 297.753 290.769 296.4 291.101 294.994L293.444 285.106H294.851L290.207 304.003C289.865 305.399 289.416 306.449 288.859 307.152C288.312 307.855 287.58 308.207 286.662 308.207C286.291 308.207 285.871 308.124 285.402 307.958V306.698C285.793 306.835 286.174 306.903 286.545 306.903C287.131 306.903 287.595 306.649 287.937 306.142C288.278 305.644 288.581 304.838 288.845 303.725L289.548 300.971Z" fill="#7F8FA6"/>
<path d="M78.2886 229L72.8086 206.485H57.728L52.333 229H48L62.9531 166.894H67.2437L82.5366 229H78.2886ZM71.8315 202.28L66.3516 179.128C65.7852 176.522 65.3462 174.059 65.0347 171.736C64.7798 174.2 64.3833 176.664 63.8452 179.128L58.5352 202.28H71.8315ZM101.525 182.017C102.97 182.017 104.315 182.215 105.561 182.611L104.584 186.647C103.564 186.222 102.517 186.01 101.44 186.01C99.8828 186.01 98.4243 186.817 97.0649 188.431C95.7339 190.017 94.686 192.24 93.9214 195.101C93.1567 197.961 92.7744 201.119 92.7744 204.574V229H88.7388V182.909H92.0522L92.4771 190.98H92.7744C94.9268 185.004 97.8438 182.017 101.525 182.017ZM124.38 229.85C119.764 229.85 116.28 227.853 113.93 223.86C111.607 219.838 110.446 213.948 110.446 206.188C110.446 198.315 111.622 192.325 113.972 188.219C116.351 184.084 119.849 182.017 124.465 182.017C127.325 182.017 129.704 182.541 131.602 183.588L130.03 187.157C128.132 186.279 126.391 185.84 124.805 185.84C118.036 185.84 114.652 192.594 114.652 206.103C114.652 219.499 118.036 226.196 124.805 226.196C126.815 226.196 128.996 225.743 131.347 224.837V228.235C130.412 228.745 129.265 229.142 127.906 229.425C126.546 229.708 125.371 229.85 124.38 229.85ZM160.361 229V197.225C160.361 193.062 159.809 190.116 158.704 188.389C157.628 186.633 155.858 185.755 153.394 185.755C150.137 185.755 147.688 187.199 146.045 190.088C144.402 192.977 143.581 197.536 143.581 203.767V229H139.545V162.9H143.581V184.353C143.581 186.307 143.524 187.936 143.411 189.238H143.751C144.657 186.944 146.017 185.174 147.829 183.928C149.67 182.654 151.582 182.017 153.564 182.017C157.472 182.017 160.248 183.291 161.89 185.84C163.533 188.389 164.354 192.184 164.354 197.225V229H160.361ZM180.539 229H176.503V182.909H180.539V229ZM175.909 170.122C175.909 168.848 176.164 167.856 176.673 167.148C177.211 166.44 177.891 166.086 178.712 166.086C179.477 166.086 180.086 166.44 180.539 167.148C180.992 167.856 181.219 168.848 181.219 170.122C181.219 171.34 180.992 172.317 180.539 173.053C180.086 173.761 179.477 174.115 178.712 174.115C177.891 174.115 177.211 173.761 176.673 173.053C176.164 172.317 175.909 171.34 175.909 170.122ZM201.354 226.111C202.601 226.111 203.705 225.941 204.668 225.602V229C203.422 229.566 201.822 229.85 199.868 229.85C195.11 229.85 192.731 226.295 192.731 219.187V186.477H188.568V184.098L192.646 182.909L193.963 171.949H196.767V182.909H204.073V186.477H196.767V218.04C196.767 221.155 197.106 223.279 197.786 224.412C198.466 225.545 199.655 226.111 201.354 226.111ZM225.101 229.85C220.23 229.85 216.478 227.782 213.844 223.647C211.238 219.484 209.936 213.693 209.936 206.273C209.936 198.4 211.097 192.396 213.419 188.261C215.77 184.098 219.14 182.017 223.529 182.017C227.353 182.017 230.369 183.843 232.578 187.497C234.787 191.122 235.891 196.021 235.891 202.195V205.933H214.056C214.113 212.645 215.062 217.672 216.902 221.014C218.743 224.355 221.533 226.026 225.271 226.026C228.16 226.026 231.204 225.078 234.404 223.18V227.088C231.459 228.929 228.358 229.85 225.101 229.85ZM223.274 185.67C217.724 185.67 214.679 191.207 214.141 202.28H231.855C231.855 197.21 231.077 193.175 229.519 190.173C227.99 187.171 225.908 185.67 223.274 185.67ZM258.023 229.85C253.407 229.85 249.924 227.853 247.573 223.86C245.251 219.838 244.09 213.948 244.09 206.188C244.09 198.315 245.265 192.325 247.616 188.219C249.995 184.084 253.492 182.017 258.108 182.017C260.969 182.017 263.348 182.541 265.245 183.588L263.673 187.157C261.776 186.279 260.034 185.84 258.448 185.84C251.68 185.84 248.295 192.594 248.295 206.103C248.295 219.499 251.68 226.196 258.448 226.196C260.459 226.196 262.64 225.743 264.99 224.837V228.235C264.056 228.745 262.909 229.142 261.549 229.425C260.19 229.708 259.015 229.85 258.023 229.85ZM281.643 226.111C282.889 226.111 283.993 225.941 284.956 225.602V229C283.71 229.566 282.11 229.85 280.156 229.85C275.398 229.85 273.019 226.295 273.019 219.187V186.477H268.856V184.098L272.934 182.909L274.251 171.949H277.055V182.909H284.361V186.477H277.055V218.04C277.055 221.155 277.395 223.279 278.074 224.412C278.754 225.545 279.943 226.111 281.643 226.111ZM310.402 217.445C310.402 221.325 309.382 224.37 307.343 226.579C305.304 228.759 302.359 229.85 298.507 229.85C296.412 229.85 294.571 229.581 292.985 229.042C291.399 228.504 290.167 227.91 289.289 227.258V222.543C290.337 223.591 291.725 224.44 293.452 225.092C295.18 225.715 296.95 226.026 298.762 226.026C301.141 226.026 303.01 225.248 304.37 223.69C305.729 222.132 306.409 220.051 306.409 217.445C306.409 215.406 305.913 213.693 304.922 212.305C303.959 210.889 302.104 209.289 299.357 207.505C296.213 205.522 294.061 203.937 292.9 202.747C291.767 201.558 290.875 200.227 290.224 198.754C289.601 197.281 289.289 195.525 289.289 193.486C289.289 190.173 290.408 187.44 292.645 185.288C294.882 183.107 297.729 182.017 301.184 182.017C304.894 182.017 307.995 182.895 310.487 184.65L308.405 188.176C306.083 186.619 303.619 185.84 301.014 185.84C298.635 185.84 296.737 186.548 295.321 187.964C293.905 189.352 293.197 191.192 293.197 193.486C293.197 195.525 293.679 197.239 294.642 198.626C295.604 199.986 297.644 201.643 300.759 203.597C303.817 205.607 305.913 207.222 307.046 208.439C308.179 209.629 309.014 210.96 309.552 212.433C310.119 213.877 310.402 215.548 310.402 217.445Z" fill="#7F8FA6"/>
<path d="M76.9287 148H74.2969V108.737H88.584V111.262H76.9287V127.912H87.9395V130.463H76.9287V148ZM104.778 148L104.456 143.918H104.348C102.952 146.997 100.839 148.537 98.0103 148.537C96.1125 148.537 94.5817 147.785 93.418 146.281C92.2721 144.759 91.6992 142.727 91.6992 140.185C91.6992 137.41 92.5317 135.217 94.1968 133.605C95.8618 131.976 98.1982 131.09 101.206 130.947L104.348 130.786V128.369C104.348 125.647 104.008 123.669 103.328 122.434C102.647 121.18 101.519 120.554 99.9438 120.554C98.2788 120.554 96.578 121.1 94.8413 122.192L93.7402 120.178C95.7633 118.924 97.8849 118.298 100.105 118.298C102.504 118.298 104.232 119.059 105.288 120.581C106.344 122.084 106.873 124.609 106.873 128.154V148H104.778ZM98.5742 146.362C100.4 146.362 101.815 145.467 102.817 143.676C103.838 141.868 104.348 139.317 104.348 136.022V132.988L101.313 133.149C98.9681 133.274 97.2225 133.928 96.0767 135.109C94.9487 136.273 94.3848 137.983 94.3848 140.239C94.3848 142.351 94.7607 143.9 95.5127 144.885C96.2646 145.869 97.2852 146.362 98.5742 146.362ZM139.314 148V128.154C139.314 123.266 137.882 120.822 135.017 120.822C133.048 120.822 131.624 121.682 130.747 123.4C129.888 125.101 129.458 127.617 129.458 130.947V148H126.934V128.154C126.934 125.683 126.584 123.848 125.886 122.648C125.188 121.431 124.105 120.822 122.637 120.822C120.703 120.822 119.298 121.7 118.42 123.454C117.543 125.209 117.104 128.055 117.104 131.994V148H114.553V118.862H116.702L116.917 122.917H117.158C118.322 119.838 120.3 118.298 123.093 118.298C124.705 118.298 125.976 118.728 126.907 119.587C127.838 120.446 128.509 121.7 128.921 123.347C129.619 121.556 130.479 120.267 131.499 119.479C132.52 118.692 133.844 118.298 135.474 118.298C137.676 118.298 139.287 119.148 140.308 120.849C141.328 122.532 141.838 125.236 141.838 128.959V148H139.314ZM152.124 148H149.573V118.862H152.124V148ZM149.197 110.778C149.197 109.973 149.358 109.346 149.68 108.898C150.02 108.451 150.45 108.227 150.969 108.227C151.453 108.227 151.838 108.451 152.124 108.898C152.41 109.346 152.554 109.973 152.554 110.778C152.554 111.548 152.41 112.166 152.124 112.631C151.838 113.079 151.453 113.303 150.969 113.303C150.45 113.303 150.02 113.079 149.68 112.631C149.358 112.166 149.197 111.548 149.197 110.778ZM162.49 148H159.939V106.213H162.49V148ZM173.958 147.946L166.68 118.862H169.258L173.662 137.043C174.181 139.227 174.683 141.689 175.166 144.428H175.381C175.721 142.047 176.195 139.567 176.804 136.989L181.101 118.862H183.679L175.166 153.505C174.539 156.066 173.716 157.99 172.695 159.279C171.693 160.568 170.35 161.213 168.667 161.213C167.987 161.213 167.217 161.061 166.357 160.756V158.447C167.074 158.697 167.772 158.823 168.452 158.823C169.526 158.823 170.377 158.357 171.003 157.426C171.63 156.513 172.185 155.036 172.668 152.995L173.958 147.946ZM219.961 128.315C219.961 134.814 218.985 139.809 217.034 143.3C215.1 146.792 212.298 148.537 208.628 148.537C204.922 148.537 202.111 146.783 200.195 143.273C198.28 139.746 197.322 134.742 197.322 128.261C197.322 121.494 198.271 116.454 200.168 113.142C202.066 109.829 204.913 108.173 208.708 108.173C212.361 108.173 215.145 109.919 217.061 113.41C218.994 116.883 219.961 121.852 219.961 128.315ZM200.061 128.315C200.061 134.152 200.786 138.565 202.236 141.555C203.704 144.527 205.835 146.013 208.628 146.013C211.439 146.013 213.569 144.536 215.02 141.582C216.488 138.627 217.222 134.205 217.222 128.315C217.222 122.496 216.506 118.11 215.073 115.156C213.641 112.184 211.519 110.698 208.708 110.698C205.826 110.698 203.66 112.202 202.209 115.209C200.777 118.199 200.061 122.568 200.061 128.315ZM234.302 121.118H229.736V148H227.212V121.118H223.506V119.667L227.212 118.566V116.364C227.212 112.658 227.651 109.991 228.528 108.361C229.405 106.732 230.927 105.917 233.093 105.917C234.347 105.917 235.483 106.141 236.504 106.589L235.618 108.952C234.669 108.505 233.809 108.281 233.04 108.281C232.162 108.281 231.5 108.54 231.052 109.06C230.605 109.579 230.273 110.42 230.059 111.584C229.844 112.748 229.736 114.359 229.736 116.418V118.862H234.302V121.118ZM246.897 121.118H242.332V148H239.807V121.118H236.101V119.667L239.807 118.566V116.364C239.807 112.658 240.246 109.991 241.123 108.361C242 106.732 243.522 105.917 245.688 105.917C246.942 105.917 248.079 106.141 249.099 106.589L248.213 108.952C247.264 108.505 246.405 108.281 245.635 108.281C244.757 108.281 244.095 108.54 243.647 109.06C243.2 109.579 242.869 110.42 242.654 111.584C242.439 112.748 242.332 114.359 242.332 116.418V118.862H246.897V121.118ZM254.067 148H251.516V118.862H254.067V148ZM251.14 110.778C251.14 109.973 251.301 109.346 251.624 108.898C251.964 108.451 252.393 108.227 252.913 108.227C253.396 108.227 253.781 108.451 254.067 108.898C254.354 109.346 254.497 109.973 254.497 110.778C254.497 111.548 254.354 112.166 254.067 112.631C253.781 113.079 253.396 113.303 252.913 113.303C252.393 113.303 251.964 113.079 251.624 112.631C251.301 112.166 251.14 111.548 251.14 110.778ZM269.375 148.537C266.457 148.537 264.255 147.275 262.769 144.75C261.3 142.208 260.566 138.484 260.566 133.579C260.566 128.601 261.309 124.815 262.795 122.219C264.299 119.605 266.51 118.298 269.429 118.298C271.237 118.298 272.741 118.629 273.94 119.292L272.947 121.547C271.747 120.992 270.646 120.715 269.644 120.715C265.365 120.715 263.225 124.985 263.225 133.525C263.225 141.993 265.365 146.228 269.644 146.228C270.915 146.228 272.293 145.941 273.779 145.368V147.517C273.188 147.839 272.463 148.09 271.604 148.269C270.745 148.448 270.002 148.537 269.375 148.537ZM287.234 148.537C284.154 148.537 281.782 147.23 280.117 144.616C278.47 141.984 277.646 138.323 277.646 133.632C277.646 128.655 278.381 124.86 279.849 122.246C281.335 119.614 283.465 118.298 286.24 118.298C288.657 118.298 290.564 119.453 291.96 121.762C293.357 124.054 294.055 127.151 294.055 131.054V133.417H280.251C280.287 137.661 280.887 140.839 282.051 142.951C283.215 145.064 284.978 146.12 287.341 146.12C289.167 146.12 291.092 145.52 293.115 144.321V146.792C291.253 147.955 289.293 148.537 287.234 148.537ZM286.079 120.607C282.57 120.607 280.645 124.108 280.305 131.108H291.504C291.504 127.903 291.012 125.352 290.027 123.454C289.06 121.556 287.744 120.607 286.079 120.607Z" fill="#7F8FA6"/>
</svg>
