<svg width="311" height="312" viewBox="0 0 311 312" fill="none" xmlns="http://www.w3.org/2000/svg">
<line x1="18" y1="265" x2="293" y2="265" stroke="white" stroke-width="4"/>
<path d="M18 97L109.591 28L111 114H18V97Z" fill="white"/>
<path d="M129 114V0L209 60.8924V114H129Z" fill="#BCC3DC"/>
<path d="M226 114V54L293 97V114H226Z" fill="white"/>
<path d="M77.5664 284.27C77.5664 290.09 75.75 293 72.1172 293H69.0703V275.867H72.1875C73.9531 275.867 75.2891 276.582 76.1953 278.012C77.1094 279.434 77.5664 281.52 77.5664 284.27ZM76.3594 284.34C76.3594 281.926 76.0039 280.086 75.293 278.82C74.582 277.555 73.5312 276.922 72.1406 276.922H70.2188V291.945H72.0469C73.5312 291.945 74.6211 291.297 75.3164 290C76.0117 288.703 76.3594 286.816 76.3594 284.34ZM84.1758 293.234C82.832 293.234 81.7969 292.664 81.0703 291.523C80.3516 290.375 79.9922 288.777 79.9922 286.73C79.9922 284.559 80.3125 282.902 80.9531 281.762C81.6016 280.613 82.5312 280.039 83.7422 280.039C84.7969 280.039 85.6289 280.543 86.2383 281.551C86.8477 282.551 87.1523 283.902 87.1523 285.605V286.637H81.1289C81.1445 288.488 81.4062 289.875 81.9141 290.797C82.4219 291.719 83.1914 292.18 84.2227 292.18C85.0195 292.18 85.8594 291.918 86.7422 291.395V292.473C85.9297 292.98 85.0742 293.234 84.1758 293.234ZM83.6719 281.047C82.1406 281.047 81.3008 282.574 81.1523 285.629H86.0391C86.0391 284.23 85.8242 283.117 85.3945 282.289C84.9727 281.461 84.3984 281.047 83.6719 281.047ZM94.9805 289.812C94.9805 290.883 94.6992 291.723 94.1367 292.332C93.5742 292.934 92.7617 293.234 91.6992 293.234C91.1211 293.234 90.6133 293.16 90.1758 293.012C89.7383 292.863 89.3984 292.699 89.1562 292.52V291.219C89.4453 291.508 89.8281 291.742 90.3047 291.922C90.7812 292.094 91.2695 292.18 91.7695 292.18C92.4258 292.18 92.9414 291.965 93.3164 291.535C93.6914 291.105 93.8789 290.531 93.8789 289.812C93.8789 289.25 93.7422 288.777 93.4688 288.395C93.2031 288.004 92.6914 287.562 91.9336 287.07C91.0664 286.523 90.4727 286.086 90.1523 285.758C89.8398 285.43 89.5938 285.062 89.4141 284.656C89.2422 284.25 89.1562 283.766 89.1562 283.203C89.1562 282.289 89.4648 281.535 90.082 280.941C90.6992 280.34 91.4844 280.039 92.4375 280.039C93.4609 280.039 94.3164 280.281 95.0039 280.766L94.4297 281.738C93.7891 281.309 93.1094 281.094 92.3906 281.094C91.7344 281.094 91.2109 281.289 90.8203 281.68C90.4297 282.062 90.2344 282.57 90.2344 283.203C90.2344 283.766 90.3672 284.238 90.6328 284.621C90.8984 284.996 91.4609 285.453 92.3203 285.992C93.1641 286.547 93.7422 286.992 94.0547 287.328C94.3672 287.656 94.5977 288.023 94.7461 288.43C94.9023 288.828 94.9805 289.289 94.9805 289.812ZM98.6719 293H97.5586V280.285H98.6719V293ZM97.3945 276.758C97.3945 276.406 97.4648 276.133 97.6055 275.938C97.7539 275.742 97.9414 275.645 98.168 275.645C98.3789 275.645 98.5469 275.742 98.6719 275.938C98.7969 276.133 98.8594 276.406 98.8594 276.758C98.8594 277.094 98.7969 277.363 98.6719 277.566C98.5469 277.762 98.3789 277.859 98.168 277.859C97.9414 277.859 97.7539 277.762 97.6055 277.566C97.4648 277.363 97.3945 277.094 97.3945 276.758ZM108.738 280.285V281.07L107.004 281.27C107.238 281.574 107.43 282.012 107.578 282.582C107.727 283.145 107.801 283.723 107.801 284.316C107.801 285.551 107.52 286.551 106.957 287.316C106.402 288.082 105.668 288.465 104.754 288.465H104.473L104.227 288.441C103.852 288.707 103.555 288.973 103.336 289.238C103.125 289.504 103.02 289.812 103.02 290.164C103.02 290.523 103.16 290.805 103.441 291.008C103.723 291.203 104.102 291.301 104.578 291.301H105.375C106.508 291.301 107.387 291.594 108.012 292.18C108.637 292.766 108.949 293.613 108.949 294.723C108.949 295.965 108.527 296.949 107.684 297.676C106.848 298.402 105.742 298.766 104.367 298.766C103.219 298.766 102.336 298.473 101.719 297.887C101.102 297.309 100.793 296.473 100.793 295.379C100.793 294.582 100.996 293.898 101.402 293.328C101.809 292.766 102.445 292.32 103.312 291.992C102.922 291.82 102.605 291.582 102.363 291.277C102.129 290.973 102.012 290.609 102.012 290.188C102.012 289.805 102.137 289.465 102.387 289.168C102.645 288.863 103.008 288.539 103.477 288.195C102.828 287.898 102.336 287.418 102 286.754C101.672 286.09 101.508 285.309 101.508 284.41C101.508 283.059 101.793 281.992 102.363 281.211C102.934 280.43 103.715 280.039 104.707 280.039C105.238 280.039 105.684 280.121 106.043 280.285H108.738ZM101.895 295.285C101.895 296.09 102.102 296.719 102.516 297.172C102.938 297.625 103.57 297.852 104.414 297.852C105.461 297.852 106.289 297.578 106.898 297.031C107.516 296.484 107.824 295.734 107.824 294.781C107.824 294.016 107.613 293.422 107.191 293C106.777 292.586 106.172 292.379 105.375 292.379H104.555C103.789 292.379 103.152 292.645 102.645 293.176C102.145 293.715 101.895 294.418 101.895 295.285ZM102.586 284.434C102.586 285.473 102.777 286.262 103.16 286.801C103.543 287.332 104.051 287.598 104.684 287.598C106.043 287.598 106.723 286.504 106.723 284.316C106.723 283.262 106.547 282.438 106.195 281.844C105.852 281.25 105.348 280.953 104.684 280.953C104.004 280.953 103.484 281.258 103.125 281.867C102.766 282.477 102.586 283.332 102.586 284.434ZM116.52 293V284.234C116.52 282.125 115.895 281.07 114.645 281.07C113.691 281.07 112.992 281.465 112.547 282.254C112.109 283.043 111.891 284.297 111.891 286.016V293H110.777V280.285H111.715L111.809 282.055H111.914C112.18 281.414 112.562 280.918 113.062 280.566C113.562 280.215 114.098 280.039 114.668 280.039C115.652 280.039 116.391 280.371 116.883 281.035C117.375 281.691 117.621 282.75 117.621 284.211V293H116.52ZM128.121 285.008H124.488V284.047H128.121V278.961H129.082V284.047H132.703V285.008H129.082V290.07H128.121V285.008ZM139.805 275.867H143.086C144.43 275.867 145.461 276.211 146.18 276.898C146.906 277.586 147.27 278.602 147.27 279.945C147.27 282.266 146.422 283.594 144.727 283.93V284.023C145.703 284.227 146.43 284.664 146.906 285.336C147.383 286 147.621 286.93 147.621 288.125C147.621 289.656 147.281 290.852 146.602 291.711C145.922 292.57 144.969 293 143.742 293H139.805V275.867ZM140.953 283.496H143.109C144.18 283.496 144.941 283.203 145.395 282.617C145.855 282.023 146.086 281.125 146.086 279.922C146.086 278.953 145.832 278.211 145.324 277.695C144.824 277.18 144.078 276.922 143.086 276.922H140.953V283.496ZM140.953 284.551V291.945H143.59C145.48 291.945 146.426 290.664 146.426 288.102C146.426 286.961 146.148 286.086 145.594 285.477C145.039 284.859 144.262 284.551 143.262 284.551H140.953ZM151.336 280.285V288.582C151.336 289.84 151.484 290.758 151.781 291.336C152.086 291.914 152.551 292.203 153.176 292.203C154.137 292.203 154.84 291.816 155.285 291.043C155.738 290.262 155.965 289.004 155.965 287.27V280.285H157.066V293H156.129L155.988 291.219H155.895C155.621 291.867 155.242 292.367 154.758 292.719C154.273 293.062 153.746 293.234 153.176 293.234C152.152 293.234 151.402 292.871 150.926 292.145C150.457 291.418 150.223 290.23 150.223 288.582V280.285H151.336ZM161.578 293H160.465V280.285H161.578V293ZM160.301 276.758C160.301 276.406 160.371 276.133 160.512 275.938C160.66 275.742 160.848 275.645 161.074 275.645C161.285 275.645 161.453 275.742 161.578 275.938C161.703 276.133 161.766 276.406 161.766 276.758C161.766 277.094 161.703 277.363 161.578 277.566C161.453 277.762 161.285 277.859 161.074 277.859C160.848 277.859 160.66 277.762 160.512 277.566C160.371 277.363 160.301 277.094 160.301 276.758ZM166.102 293H164.988V274.766H166.102V293ZM172.617 293.234C170.148 293.234 168.914 291.043 168.914 286.66C168.914 284.504 169.223 282.863 169.84 281.738C170.457 280.605 171.367 280.039 172.57 280.039C173.141 280.039 173.68 280.203 174.188 280.531C174.703 280.859 175.113 281.312 175.418 281.891H175.512L175.465 280.473V274.766H176.578V293H175.664L175.57 291.219H175.465C175.16 291.867 174.766 292.367 174.281 292.719C173.797 293.062 173.242 293.234 172.617 293.234ZM172.688 292.262C173.578 292.262 174.262 291.852 174.738 291.031C175.223 290.203 175.465 288.988 175.465 287.387V286.66C175.465 284.738 175.23 283.332 174.762 282.441C174.301 281.543 173.594 281.094 172.641 281.094C171.727 281.094 171.07 281.574 170.672 282.535C170.273 283.488 170.074 284.871 170.074 286.684C170.074 288.512 170.281 289.898 170.695 290.844C171.109 291.789 171.773 292.262 172.688 292.262ZM187.137 285.008H183.504V284.047H187.137V278.961H188.098V284.047H191.719V285.008H188.098V290.07H187.137V285.008ZM199.969 293H198.82V275.867H205.055V276.969H199.969V284.234H204.773V285.348H199.969V293ZM214.359 286.613C214.359 288.754 214.02 290.395 213.34 291.535C212.668 292.668 211.703 293.234 210.445 293.234C209.203 293.234 208.25 292.668 207.586 291.535C206.93 290.395 206.602 288.754 206.602 286.613C206.602 282.23 207.898 280.039 210.492 280.039C211.711 280.039 212.66 280.613 213.34 281.762C214.02 282.91 214.359 284.527 214.359 286.613ZM207.762 286.613C207.762 288.449 207.98 289.836 208.418 290.773C208.855 291.711 209.539 292.18 210.469 292.18C212.289 292.18 213.199 290.324 213.199 286.613C213.199 282.934 212.289 281.094 210.469 281.094C209.516 281.094 208.824 281.555 208.395 282.477C207.973 283.398 207.762 284.777 207.762 286.613ZM220.688 280.039C221.086 280.039 221.457 280.094 221.801 280.203L221.531 281.316C221.25 281.199 220.961 281.141 220.664 281.141C220.234 281.141 219.832 281.363 219.457 281.809C219.09 282.246 218.801 282.859 218.59 283.648C218.379 284.438 218.273 285.309 218.273 286.262V293H217.16V280.285H218.074L218.191 282.512H218.273C218.867 280.863 219.672 280.039 220.688 280.039ZM226.055 292.203C226.398 292.203 226.703 292.156 226.969 292.062V293C226.625 293.156 226.184 293.234 225.645 293.234C224.332 293.234 223.676 292.254 223.676 290.293V281.27H222.527V280.613L223.652 280.285L224.016 277.262H224.789V280.285H226.805V281.27H224.789V289.977C224.789 290.836 224.883 291.422 225.07 291.734C225.258 292.047 225.586 292.203 226.055 292.203ZM230.109 293H228.996V280.285H230.109V293ZM228.832 276.758C228.832 276.406 228.902 276.133 229.043 275.938C229.191 275.742 229.379 275.645 229.605 275.645C229.816 275.645 229.984 275.742 230.109 275.938C230.234 276.133 230.297 276.406 230.297 276.758C230.297 277.094 230.234 277.363 230.109 277.566C229.984 277.762 229.816 277.859 229.605 277.859C229.379 277.859 229.191 277.762 229.043 277.566C228.902 277.363 228.832 277.094 228.832 276.758ZM236.766 281.27H234.773V293H233.672V281.27H232.055V280.637L233.672 280.156V279.195C233.672 277.578 233.863 276.414 234.246 275.703C234.629 274.992 235.293 274.637 236.238 274.637C236.785 274.637 237.281 274.734 237.727 274.93L237.34 275.961C236.926 275.766 236.551 275.668 236.215 275.668C235.832 275.668 235.543 275.781 235.348 276.008C235.152 276.234 235.008 276.602 234.914 277.109C234.82 277.617 234.773 278.32 234.773 279.219V280.285H236.766V281.27ZM240.434 292.977L237.258 280.285H238.383L240.305 288.219C240.531 289.172 240.75 290.246 240.961 291.441H241.055C241.203 290.402 241.41 289.32 241.676 288.195L243.551 280.285H244.676L240.961 295.402C240.688 296.52 240.328 297.359 239.883 297.922C239.445 298.484 238.859 298.766 238.125 298.766C237.828 298.766 237.492 298.699 237.117 298.566V297.559C237.43 297.668 237.734 297.723 238.031 297.723C238.5 297.723 238.871 297.52 239.145 297.113C239.418 296.715 239.66 296.07 239.871 295.18L240.434 292.977Z" fill="#BCC3DC"/>
<path d="M52.9946 250L47.5146 227.485H32.4341L27.0391 250H22.7061L37.6592 187.894H41.9497L57.2427 250H52.9946ZM46.5376 223.28L41.0576 200.128C40.4912 197.522 40.0522 195.059 39.7407 192.736C39.4858 195.2 39.0894 197.664 38.5513 200.128L33.2412 223.28H46.5376ZM76.2314 203.017C77.6758 203.017 79.021 203.215 80.2671 203.611L79.29 207.647C78.2705 207.222 77.2227 207.01 76.1465 207.01C74.5889 207.01 73.1304 207.817 71.771 209.431C70.4399 211.017 69.3921 213.24 68.6274 216.101C67.8628 218.961 67.4805 222.119 67.4805 225.574V250H63.4448V203.909H66.7583L67.1831 211.98H67.4805C69.6328 206.004 72.5498 203.017 76.2314 203.017ZM99.0859 250.85C94.4697 250.85 90.9863 248.853 88.6357 244.86C86.3135 240.838 85.1523 234.948 85.1523 227.188C85.1523 219.315 86.3276 213.325 88.6782 209.219C91.0571 205.084 94.5547 203.017 99.1709 203.017C102.031 203.017 104.41 203.541 106.308 204.588L104.736 208.157C102.838 207.279 101.097 206.84 99.5107 206.84C92.7422 206.84 89.3579 213.594 89.3579 227.103C89.3579 240.499 92.7422 247.196 99.5107 247.196C101.521 247.196 103.702 246.743 106.053 245.837V249.235C105.118 249.745 103.971 250.142 102.612 250.425C101.252 250.708 100.077 250.85 99.0859 250.85ZM135.067 250V218.225C135.067 214.062 134.515 211.116 133.41 209.389C132.334 207.633 130.564 206.755 128.1 206.755C124.843 206.755 122.394 208.199 120.751 211.088C119.108 213.977 118.287 218.536 118.287 224.767V250H114.251V183.9H118.287V205.353C118.287 207.307 118.23 208.936 118.117 210.238H118.457C119.363 207.944 120.723 206.174 122.535 204.928C124.376 203.654 126.288 203.017 128.27 203.017C132.178 203.017 134.954 204.291 136.596 206.84C138.239 209.389 139.06 213.184 139.06 218.225V250H135.067ZM155.245 250H151.209V203.909H155.245V250ZM150.615 191.122C150.615 189.848 150.87 188.856 151.379 188.148C151.917 187.44 152.597 187.086 153.418 187.086C154.183 187.086 154.792 187.44 155.245 188.148C155.698 188.856 155.925 189.848 155.925 191.122C155.925 192.34 155.698 193.317 155.245 194.053C154.792 194.761 154.183 195.115 153.418 195.115C152.597 195.115 151.917 194.761 151.379 194.053C150.87 193.317 150.615 192.34 150.615 191.122ZM176.061 247.111C177.307 247.111 178.411 246.941 179.374 246.602V250C178.128 250.566 176.528 250.85 174.574 250.85C169.816 250.85 167.437 247.295 167.437 240.187V207.477H163.274V205.098L167.352 203.909L168.669 192.949H171.473V203.909H178.779V207.477H171.473V239.04C171.473 242.155 171.812 244.279 172.492 245.412C173.172 246.545 174.361 247.111 176.061 247.111ZM199.807 250.85C194.936 250.85 191.184 248.782 188.55 244.647C185.944 240.484 184.642 234.693 184.642 227.273C184.642 219.4 185.803 213.396 188.125 209.261C190.476 205.098 193.846 203.017 198.235 203.017C202.059 203.017 205.075 204.843 207.284 208.497C209.493 212.122 210.597 217.021 210.597 223.195V226.933H188.762C188.819 233.645 189.768 238.672 191.608 242.014C193.449 245.355 196.239 247.026 199.977 247.026C202.866 247.026 205.91 246.078 209.11 244.18V248.088C206.165 249.929 203.064 250.85 199.807 250.85ZM197.98 206.67C192.43 206.67 189.385 212.207 188.847 223.28H206.562C206.562 218.21 205.783 214.175 204.225 211.173C202.696 208.171 200.614 206.67 197.98 206.67ZM232.729 250.85C228.113 250.85 224.63 248.853 222.279 244.86C219.957 240.838 218.796 234.948 218.796 227.188C218.796 219.315 219.971 213.325 222.322 209.219C224.701 205.084 228.198 203.017 232.814 203.017C235.675 203.017 238.054 203.541 239.951 204.588L238.379 208.157C236.482 207.279 234.74 206.84 233.154 206.84C226.386 206.84 223.001 213.594 223.001 227.103C223.001 240.499 226.386 247.196 233.154 247.196C235.165 247.196 237.346 246.743 239.696 245.837V249.235C238.762 249.745 237.615 250.142 236.255 250.425C234.896 250.708 233.721 250.85 232.729 250.85ZM256.349 247.111C257.595 247.111 258.699 246.941 259.662 246.602V250C258.416 250.566 256.816 250.85 254.862 250.85C250.104 250.85 247.725 247.295 247.725 240.187V207.477H243.562V205.098L247.64 203.909L248.957 192.949H251.761V203.909H259.067V207.477H251.761V239.04C251.761 242.155 252.101 244.279 252.78 245.412C253.46 246.545 254.649 247.111 256.349 247.111ZM285.108 238.445C285.108 242.325 284.088 245.37 282.049 247.579C280.01 249.759 277.065 250.85 273.213 250.85C271.118 250.85 269.277 250.581 267.691 250.042C266.105 249.504 264.873 248.91 263.995 248.258V243.543C265.043 244.591 266.431 245.44 268.158 246.092C269.886 246.715 271.656 247.026 273.468 247.026C275.847 247.026 277.716 246.248 279.076 244.69C280.435 243.132 281.115 241.051 281.115 238.445C281.115 236.406 280.619 234.693 279.628 233.305C278.665 231.889 276.81 230.289 274.063 228.505C270.919 226.522 268.767 224.937 267.606 223.747C266.473 222.558 265.581 221.227 264.93 219.754C264.307 218.281 263.995 216.525 263.995 214.486C263.995 211.173 265.114 208.44 267.351 206.288C269.588 204.107 272.435 203.017 275.89 203.017C279.6 203.017 282.701 203.895 285.193 205.65L283.111 209.176C280.789 207.619 278.325 206.84 275.72 206.84C273.341 206.84 271.443 207.548 270.027 208.964C268.611 210.352 267.903 212.192 267.903 214.486C267.903 216.525 268.385 218.239 269.348 219.626C270.311 220.986 272.35 222.643 275.465 224.597C278.523 226.607 280.619 228.222 281.752 229.439C282.885 230.629 283.72 231.96 284.258 233.433C284.825 234.877 285.108 236.548 285.108 238.445Z" fill="#BCC3DC"/>
<path d="M25.8955 170H18.6445V130.737H36.2349V137.048H25.8955V147.952H35.5366V154.263H25.8955V170ZM55.3828 170L53.9595 165.918H53.7983C52.742 167.673 51.6499 168.881 50.522 169.543C49.394 170.206 47.9707 170.537 46.252 170.537C44.0498 170.537 42.3132 169.714 41.042 168.066C39.7887 166.419 39.1621 164.128 39.1621 161.191C39.1621 158.04 40.0215 155.704 41.7402 154.182C43.4769 152.642 46.064 151.792 49.5015 151.631L53.4761 151.47V149.321C53.4761 146.528 52.2676 145.132 49.8506 145.132C48.0602 145.132 46.0013 145.83 43.6738 147.227L41.2031 142.285C44.1751 140.405 47.4067 139.465 50.8979 139.465C54.0669 139.465 56.4749 140.378 58.1221 142.205C59.7871 144.013 60.6196 146.582 60.6196 149.912V170H55.3828ZM49.1792 164.951C50.4862 164.951 51.5246 164.369 52.2944 163.206C53.0822 162.024 53.4761 160.457 53.4761 158.506V155.981L51.2739 156.089C49.6447 156.178 48.4451 156.644 47.6753 157.485C46.9233 158.327 46.5474 159.58 46.5474 161.245C46.5474 163.716 47.4246 164.951 49.1792 164.951ZM96.0957 170V152.168C96.0957 147.782 95.0125 145.588 92.8462 145.588C91.2707 145.588 90.1427 146.376 89.4624 147.952C88.7821 149.509 88.4419 152.016 88.4419 155.471V170H81.2446V152.168C81.2446 147.782 80.1436 145.588 77.9414 145.588C76.4017 145.588 75.2827 146.367 74.5845 147.925C73.8862 149.482 73.5371 152.052 73.5371 155.632V170H66.3936V140.083H72.0601L72.9194 143.923H73.376C74.0921 142.402 75.0679 141.292 76.3032 140.593C77.5565 139.877 78.8903 139.519 80.3047 139.519C83.957 139.519 86.3919 141.247 87.6094 144.702H87.8779C89.3997 141.247 91.8436 139.519 95.2095 139.519C97.8592 139.519 99.8644 140.45 101.225 142.312C102.604 144.174 103.293 146.895 103.293 150.476V170H96.0957ZM116.291 170H109.147V140.083H116.291V170ZM108.852 132.268C108.852 131.086 109.192 130.155 109.873 129.475C110.571 128.777 111.538 128.428 112.773 128.428C113.937 128.428 114.868 128.777 115.566 129.475C116.264 130.155 116.613 131.086 116.613 132.268C116.613 133.486 116.255 134.434 115.539 135.115C114.823 135.777 113.901 136.108 112.773 136.108C111.591 136.108 110.642 135.777 109.926 135.115C109.21 134.434 108.852 133.486 108.852 132.268ZM129.558 170H122.414V128.213H129.558V170ZM132.539 140.083H139.951L144.086 156.975C144.498 158.479 144.829 160.583 145.08 163.286H145.241C145.259 162.856 145.34 162.096 145.483 161.003C145.626 159.893 145.743 159.025 145.832 158.398C145.922 157.772 147.157 151.667 149.538 140.083H157.058L148.491 172.148C147.452 176.087 146.074 178.916 144.355 180.635C142.636 182.354 140.345 183.213 137.48 183.213C136.066 183.213 134.803 183.061 133.693 182.756V176.768C134.427 176.982 135.251 177.09 136.164 177.09C138.563 177.09 140.139 175.514 140.891 172.363L141.401 170.483L132.539 140.083ZM201.154 150.315C201.154 156.814 199.937 161.809 197.502 165.3C195.067 168.792 191.585 170.537 187.055 170.537C182.508 170.537 179.016 168.8 176.582 165.327C174.147 161.836 172.929 156.814 172.929 150.261C172.929 143.762 174.147 138.785 176.582 135.33C179.016 131.856 182.526 130.12 187.109 130.12C191.639 130.12 195.112 131.865 197.529 135.356C199.946 138.83 201.154 143.816 201.154 150.315ZM180.395 150.315C180.395 154.791 180.959 158.201 182.087 160.547C183.215 162.892 184.871 164.065 187.055 164.065C191.459 164.065 193.662 159.482 193.662 150.315C193.662 141.148 191.477 136.565 187.109 136.565C184.889 136.565 183.215 137.738 182.087 140.083C180.959 142.41 180.395 145.821 180.395 150.315ZM219.765 145.75H214.824V170H207.68V145.75H204.216V142.178L207.68 140.029V137.773C207.68 134.443 208.369 131.973 209.748 130.361C211.127 128.732 213.347 127.917 216.408 127.917C218.342 127.917 220.141 128.32 221.806 129.126L219.926 134.578C219.031 134.148 218.118 133.933 217.187 133.933C216.363 133.933 215.764 134.255 215.388 134.9C215.012 135.544 214.824 136.538 214.824 137.881V140.083H219.765V145.75ZM236.657 145.75H231.716V170H224.572V145.75H221.108V142.178L224.572 140.029V137.773C224.572 134.443 225.262 131.973 226.64 130.361C228.019 128.732 230.239 127.917 233.3 127.917C235.234 127.917 237.033 128.32 238.698 129.126L236.818 134.578C235.923 134.148 235.01 133.933 234.079 133.933C233.256 133.933 232.656 134.255 232.28 134.9C231.904 135.544 231.716 136.538 231.716 137.881V140.083H236.657V145.75ZM246.997 170H239.853V140.083H246.997V170ZM239.558 132.268C239.558 131.086 239.898 130.155 240.578 129.475C241.276 128.777 242.243 128.428 243.479 128.428C244.642 128.428 245.573 128.777 246.271 129.475C246.97 130.155 247.319 131.086 247.319 132.268C247.319 133.486 246.961 134.434 246.245 135.115C245.528 135.777 244.606 136.108 243.479 136.108C242.297 136.108 241.348 135.777 240.632 135.115C239.916 134.434 239.558 133.486 239.558 132.268ZM263.029 170.537C259.466 170.537 256.754 169.239 254.892 166.643C253.03 164.047 252.099 160.234 252.099 155.203C252.099 149.939 252.976 146.009 254.731 143.413C256.503 140.817 259.234 139.519 262.922 139.519C264.032 139.519 265.196 139.68 266.413 140.002C267.631 140.325 268.723 140.79 269.689 141.399L267.648 146.958C266.162 146.081 264.847 145.642 263.701 145.642C262.179 145.642 261.078 146.439 260.397 148.032C259.735 149.608 259.404 151.98 259.404 155.149C259.404 158.246 259.735 160.565 260.397 162.104C261.06 163.626 262.143 164.387 263.647 164.387C265.437 164.387 267.308 163.761 269.26 162.507V168.792C267.38 169.955 265.303 170.537 263.029 170.537ZM284.594 170.537C280.852 170.537 277.898 169.212 275.732 166.562C273.583 163.895 272.509 160.126 272.509 155.256C272.509 150.315 273.485 146.457 275.437 143.682C277.388 140.907 280.109 139.519 283.601 139.519C286.859 139.519 289.428 140.71 291.308 143.091C293.188 145.454 294.128 148.775 294.128 153.054V156.868H279.76C279.814 159.535 280.36 161.523 281.398 162.83C282.437 164.119 283.869 164.763 285.695 164.763C288.023 164.763 290.404 164.038 292.839 162.588V168.469C290.547 169.848 287.799 170.537 284.594 170.537ZM283.547 145.024C282.526 145.024 281.685 145.57 281.022 146.663C280.36 147.737 279.975 149.411 279.868 151.685H287.119C287.083 149.5 286.752 147.844 286.125 146.716C285.498 145.588 284.639 145.024 283.547 145.024Z" fill="white"/>
</svg>
